# xmcd CD database file
#
# Track frame offsets:
#	150
#	22827
#	44330
#	61484
#	82808
#	101889
#	119462
#	134584
#	152588
#	164328
#	177378
#	194499
#	210181
#	224756
#	246369
#
# Disc length: 3499 seconds
#
# Revision: 1
# Processed by: cddbd v1.5.2PL0 Copyright (c) Steve Scherf et al.
# Submitted via: CDex 1.51
#
DISCID=d70da90f
DTITLE=Various Artist - SFPix and MIx-1
DYEAR=1900
DGENRE=Blues
TTITLE0=Adele - Skyfall
TTITLE1=Kid Rock - Cowboy
TTITLE2=Randy Travis - Forever And Ever Amen
TTITLE3=Jesus Christ Superstar - Judus's Death
TTITLE4=Diana Ross - I'm Coming Out
TTITLE5=Belouis Some - Imagination
TTITLE6=Paloma Faith - Never Tear Us Apart
TTITLE7=Rihanna - Diamonds
TTITLE8=Kris Krisofferson - Help Me Make It Through The Night
TTITLE9=Freddy Fender - Before The Next Teardrop Falls
TTITLE10=Roger Whittaker . The Last Farewell
TTITLE11=Jesus Christ Superstar - Superstar
TTITLE12=Jesus Christ Superstar - King Herod's Song
TTITLE13=Jesus Christ Superstar - Heaven On Their Minds
TTITLE14=Andy Williams - (where do i begin) Love Story
EXTD=
EXTT0=
EXTT1=
EXTT2=
EXTT3=
EXTT4=
EXTT5=
EXTT6=
EXTT7=
EXTT8=
EXTT9=
EXTT10=
EXTT11=
EXTT12=
EXTT13=
EXTT14=
PLAYORDER=
